<svg width="60" height="60" viewBox="0 0 60 60" fill="none" xmlns="http://www.w3.org/2000/svg">
<g id="achievement-reward-award_svgrepo.com">
<g id="Group">
<g id="Group_2">
<path id="Vector" fill-rule="evenodd" clip-rule="evenodd" d="M30 3.74988L34.6436 7.04251L39.7969 7.40639L42.6888 11.6861L47.8612 14.0624L47.3324 19.7313L49.5937 24.3749L47.3324 29.0184L47.8612 34.6874L42.6888 37.0637L39.7969 41.3434L34.6436 41.7072L30 44.9999L25.3564 41.7072L20.2031 41.3434L17.3112 37.0637L12.1388 34.6874L12.6676 29.0184L10.4062 24.3749L12.6676 19.7313L12.1388 14.0624L17.3112 11.6861L20.2031 7.40639L25.3564 7.04251L30 3.74988Z" fill="#90E0EF"/>
</g>
<g id="Group_3">
<path id="Vector_2" fill-rule="evenodd" clip-rule="evenodd" d="M14.6185 37.5671L7.11853 50.5575L13.8649 50.1224L16.8613 56.1825L24.3613 43.1921" fill="#90E0EF"/>
</g>
<g id="Group_4">
<path id="Vector_3" fill-rule="evenodd" clip-rule="evenodd" d="M45.3684 37.5671L52.8684 50.5575L46.122 50.1224L43.1256 56.1825L35.6256 43.1921" fill="#90E0EF"/>
</g>
<path id="Vector_4" fill-rule="evenodd" clip-rule="evenodd" d="M12.8156 36.9412L5.49563 49.62C5.14875 50.2181 5.16188 50.9587 5.52563 51.5475C5.89125 52.1344 6.54938 52.4737 7.23938 52.4287L12.7388 52.0743L15.1819 57.0131C15.4875 57.6337 16.11 58.035 16.8019 58.0575C17.4919 58.0781 18.1406 57.7181 18.4856 57.12L25.8544 44.3587L26.7469 44.9925C28.695 46.3744 31.305 46.3744 33.2531 44.9925L34.1363 44.3643L41.5013 57.12C41.8463 57.7181 42.495 58.0781 43.185 58.0575C43.8769 58.035 44.4994 57.6337 44.805 57.0131L47.2481 52.0743L52.7475 52.4287C53.4375 52.4737 54.0956 52.1344 54.4612 51.5475C54.825 50.9587 54.8381 50.2181 54.4912 49.62L47.175 36.9487C48.7688 35.7993 49.6688 33.8737 49.4813 31.8656C49.4156 31.1662 49.35 30.45 49.2975 29.8912C49.2656 29.5481 49.3275 29.205 49.4775 28.8956L50.4806 26.8369C51.2362 25.2825 51.2362 23.4675 50.4806 21.9131L49.4775 19.8544C49.3275 19.545 49.2656 19.2019 49.2975 18.8587C49.35 18.3 49.4156 17.5837 49.4813 16.8844C49.7044 14.505 48.3994 12.2456 46.2281 11.25C45.5887 10.9556 44.9363 10.6556 44.4244 10.4212C44.1131 10.2787 43.8469 10.0519 43.6537 9.76685L42.3731 7.86937C41.4056 6.43687 39.8325 5.52936 38.1075 5.40748L35.8238 5.24624C35.4806 5.22186 35.1525 5.10372 34.8713 4.90497C34.4138 4.5806 33.8269 4.16435 33.2531 3.75748C31.305 2.3756 28.695 2.3756 26.7469 3.75748C26.1731 4.16435 25.5863 4.5806 25.1288 4.90497C24.8475 5.10372 24.5194 5.22186 24.1762 5.24624L21.8925 5.40748C20.1675 5.52936 18.5944 6.43687 17.6269 7.86937L16.3463 9.76685C16.1531 10.0519 15.8869 10.2787 15.5756 10.4212C15.0638 10.6556 14.4113 10.9556 13.7719 11.25C11.6006 12.2456 10.2956 14.505 10.5188 16.8844C10.5844 17.5837 10.65 18.3 10.7025 18.8587C10.7344 19.2019 10.6725 19.545 10.5225 19.8544L9.51938 21.9131C8.76376 23.4675 8.76376 25.2825 9.51938 26.8369L10.5225 28.8956C10.6725 29.205 10.7344 29.5481 10.7025 29.8912C10.65 30.45 10.5844 31.1662 10.5188 31.8656C10.3313 33.87 11.2294 35.79 12.8156 36.9412ZM16.1231 38.7112L10.4944 48.4612L13.7456 48.2512C14.4994 48.2025 15.21 48.6131 15.5456 49.2919L16.9894 52.2112L22.1006 43.3575L21.8925 43.3425C20.1675 43.2206 18.5944 42.3131 17.6269 40.8806L16.3463 38.9831C16.2806 38.8856 16.2056 38.7956 16.1231 38.7112ZM43.8694 38.7206C43.7888 38.8012 43.7175 38.8894 43.6537 38.9831L42.3731 40.8806C41.4056 42.3131 39.8325 43.2206 38.1075 43.3425L37.8863 43.3575L42.9975 52.2112L44.4413 49.2919C44.7769 48.6131 45.4875 48.2025 46.2413 48.2512L49.4925 48.4612L43.8694 38.7206ZM27.2981 7.96498L28.9162 6.81748C29.565 6.35623 30.435 6.35623 31.0838 6.81748L32.7019 7.96498C33.5438 8.56123 34.5319 8.91373 35.5594 8.98685L37.8431 9.1481C38.4188 9.18935 38.9419 9.49123 39.2644 9.96936L40.5469 11.865C41.1225 12.72 41.9231 13.3987 42.8606 13.83L44.6625 14.6569C45.3863 14.9887 45.8213 15.7425 45.7481 16.5356L45.5625 18.51C45.4669 19.5375 45.6544 20.5687 46.1062 21.4968L47.1094 23.5537C47.3606 24.0731 47.3606 24.6769 47.1094 25.1962L46.1062 27.2531C45.6544 28.1812 45.4669 29.2125 45.5625 30.24L45.7481 32.2144C45.8213 33.0075 45.3863 33.7612 44.6625 34.0931L42.8606 34.92C41.9231 35.3512 41.1225 36.03 40.5469 36.885L39.2644 38.7806C38.9419 39.2587 38.4188 39.5606 37.8431 39.6019L35.5594 39.7631C34.5319 39.8362 33.5438 40.1887 32.7019 40.785L31.0838 41.9325C30.435 42.3937 29.565 42.3937 28.9162 41.9325L27.2981 40.785C26.4562 40.1887 25.4681 39.8362 24.4406 39.7631L22.1569 39.6019C21.5813 39.5606 21.0581 39.2587 20.7356 38.7806L19.4531 36.885C18.8775 36.03 18.0769 35.3512 17.1394 34.92L15.3375 34.0931C14.6138 33.7612 14.1787 33.0075 14.2519 32.2144L14.4375 30.24C14.5331 29.2125 14.3456 28.1812 13.8938 27.2531L12.8906 25.1962C12.6394 24.6769 12.6394 24.0731 12.8906 23.5537L13.8938 21.4968C14.3456 20.5687 14.5331 19.5375 14.4375 18.51L14.2519 16.5356C14.1787 15.7425 14.6138 14.9887 15.3375 14.6569L17.1394 13.83C18.0769 13.3987 18.8775 12.72 19.4531 11.865L20.7356 9.96936C21.0581 9.49123 21.5813 9.18935 22.1569 9.1481L24.4406 8.98685C25.4681 8.91373 26.4562 8.56123 27.2981 7.96498ZM30 13.125C23.7919 13.125 18.75 18.1669 18.75 24.375C18.75 30.5831 23.7919 35.625 30 35.625C36.2081 35.625 41.25 30.5831 41.25 24.375C41.25 18.1669 36.2081 13.125 30 13.125ZM30 16.875C34.14 16.875 37.5 20.235 37.5 24.375C37.5 28.515 34.14 31.875 30 31.875C25.86 31.875 22.5 28.515 22.5 24.375C22.5 20.235 25.86 16.875 30 16.875Z" fill="#1990A7"/>
</g>
</g>
</svg>
