<svg width="51" height="43" viewBox="0 0 51 43" fill="none" xmlns="http://www.w3.org/2000/svg">
<path id="Vector" d="M3 11.75L9.80467 17.4205C10.2539 17.795 10.8203 18 11.4051 18H39.5947C40.1797 18 40.746 17.795 41.1952 17.4205L48 11.75M11.75 26.75H11.775M39.25 26.75H39.275M15.9016 3H35.0985C36.8928 3 38.5495 3.96143 39.4395 5.5193L46.6825 18.1942C47.5457 19.7052 48 21.4152 48 23.1557V38C48 39.3807 46.8807 40.5 45.5 40.5H43C41.6193 40.5 40.5 39.3807 40.5 38V35.5H10.5V38C10.5 39.3807 9.3807 40.5 8 40.5H5.5C4.1193 40.5 3 39.3807 3 38V23.1557C3 21.4152 3.45415 19.7052 4.31757 18.1942L11.5604 5.5193C12.4506 3.96143 14.1073 3 15.9016 3ZM13 26.75C13 27.4403 12.4404 28 11.75 28C11.0596 28 10.5 27.4403 10.5 26.75C10.5 26.0597 11.0596 25.5 11.75 25.5C12.4404 25.5 13 26.0597 13 26.75ZM40.5 26.75C40.5 27.4403 39.9403 28 39.25 28C38.5597 28 38 27.4403 38 26.75C38 26.0597 38.5597 25.5 39.25 25.5C39.9403 25.5 40.5 26.0597 40.5 26.75Z" stroke="#CF9F30" stroke-width="5" stroke-linecap="round" stroke-linejoin="round"/>
</svg>
