<svg width="157" height="157" viewBox="0 0 157 157" fill="none" xmlns="http://www.w3.org/2000/svg">
<g id="fireworks_svgrepo.com">
<g id="fireworks">
<path id="Vector" d="M85.8125 10.25C85.8125 8.3106 85.0421 6.45064 83.6707 5.07928C82.2994 3.70792 80.4394 2.9375 78.5 2.9375C76.5606 2.9375 74.7006 3.70792 73.3293 5.07928C71.9579 6.45064 71.1875 8.3106 71.1875 10.25C71.1875 14.2889 78.5 54.125 78.5 54.125C78.5 54.125 85.8125 14.2889 85.8125 10.25Z" stroke="#CF9F30" stroke-width="1.875" stroke-linecap="round" stroke-linejoin="round"/>
<path id="Vector_2" d="M78.5 61.4375V66.3125" stroke="#CF9F30" stroke-width="1.875" stroke-linecap="round" stroke-linejoin="round"/>
<path id="Vector_3" d="M85.8125 146.75C85.8125 148.689 85.0421 150.549 83.6707 151.921C82.2994 153.292 80.4394 154.062 78.5 154.062C76.5606 154.062 74.7006 153.292 73.3293 151.921C71.9579 150.549 71.1875 148.689 71.1875 146.75C71.1875 142.711 78.5 102.875 78.5 102.875C78.5 102.875 85.8125 142.711 85.8125 146.75Z" stroke="#CF9F30" stroke-width="1.875" stroke-linecap="round" stroke-linejoin="round"/>
<path id="Vector_4" d="M10.25 71.1875C8.3106 71.1875 6.45064 71.9579 5.07928 73.3293C3.70792 74.7006 2.9375 76.5606 2.9375 78.5C2.9375 80.4394 3.70792 82.2994 5.07928 83.6707C6.45064 85.0421 8.3106 85.8125 10.25 85.8125C14.2889 85.8125 54.125 78.5 54.125 78.5C54.125 78.5 14.2889 71.1875 10.25 71.1875Z" stroke="#CF9F30" stroke-width="1.875" stroke-linecap="round" stroke-linejoin="round"/>
<path id="Vector_5" d="M146.75 71.1875C148.689 71.1875 150.549 71.9579 151.921 73.3293C153.292 74.7006 154.062 76.5606 154.062 78.5C154.062 80.4394 153.292 82.2994 151.921 83.6707C150.549 85.0421 148.689 85.8125 146.75 85.8125C142.711 85.8125 102.875 78.5 102.875 78.5C102.875 78.5 142.711 71.1875 146.75 71.1875Z" stroke="#CF9F30" stroke-width="1.875" stroke-linecap="round" stroke-linejoin="round"/>
<path id="Vector_6" d="M43.1758 32.8359C41.8021 31.6216 40.0038 31 38.1735 31.1068C36.3431 31.2137 34.6294 32.0403 33.4063 33.4062C32.0404 34.6293 31.2138 36.3431 31.1069 38.1734C31 40.0038 31.6216 41.8021 32.8359 43.1757C35.3758 45.7181 65.6057 65.6007 65.6057 65.6007C65.6057 65.6007 45.7181 35.3757 43.1758 32.8359Z" stroke="#CF9F30" stroke-width="1.875" stroke-linecap="round" stroke-linejoin="round"/>
<path id="Vector_7" d="M124.164 113.824C125.283 115.24 125.843 117.017 125.738 118.818C125.633 120.619 124.87 122.319 123.595 123.595C122.319 124.87 120.619 125.633 118.818 125.738C117.017 125.843 115.24 125.283 113.824 124.164C111.282 121.624 91.3993 91.3944 91.3993 91.3944C91.3993 91.3944 121.624 111.282 124.164 113.824Z" stroke="#CF9F30" stroke-width="1.875" stroke-linecap="round" stroke-linejoin="round"/>
<path id="Vector_8" d="M32.8359 113.824C31.6216 115.198 31 116.996 31.1069 118.827C31.2138 120.657 32.0404 122.371 33.4063 123.594C34.6294 124.96 36.3431 125.786 38.1735 125.893C40.0038 126 41.8021 125.378 43.1758 124.164C45.7181 121.624 65.6008 91.3944 65.6008 91.3944C65.6008 91.3944 35.3758 111.282 32.8359 113.824Z" stroke="#CF9F30" stroke-width="1.875" stroke-linecap="round" stroke-linejoin="round"/>
<path id="Vector_9" d="M113.824 32.8359C115.198 31.6216 116.996 31 118.827 31.1068C120.657 31.2137 122.371 32.0403 123.594 33.4062C124.96 34.6293 125.786 36.3431 125.893 38.1734C126 40.0038 125.378 41.8021 124.164 43.1757C121.624 45.7181 91.3944 65.6007 91.3944 65.6007C91.3944 65.6007 111.282 35.3757 113.824 32.8359Z" stroke="#CF9F30" stroke-width="1.875" stroke-linecap="round" stroke-linejoin="round"/>
<path id="Vector_10" d="M78.5 95.5625V90.6875" stroke="#CF9F30" stroke-width="1.875" stroke-linecap="round" stroke-linejoin="round"/>
<path id="Vector_11" d="M61.4375 78.5H66.3125" stroke="#CF9F30" stroke-width="1.875" stroke-linecap="round" stroke-linejoin="round"/>
<path id="Vector_12" d="M95.5625 78.5H90.6875" stroke="#CF9F30" stroke-width="1.875" stroke-linecap="round" stroke-linejoin="round"/>
<path id="Vector_13" d="M78.5 83.375C81.1924 83.375 83.375 81.1924 83.375 78.5C83.375 75.8076 81.1924 73.625 78.5 73.625C75.8076 73.625 73.625 75.8076 73.625 78.5C73.625 81.1924 75.8076 83.375 78.5 83.375Z" stroke="#CF9F30" stroke-width="1.875" stroke-linecap="round" stroke-linejoin="round"/>
<path id="Vector_14" d="M137 22.4375C138.346 22.4375 139.438 21.3462 139.438 20C139.438 18.6538 138.346 17.5625 137 17.5625C135.654 17.5625 134.562 18.6538 134.562 20C134.562 21.3462 135.654 22.4375 137 22.4375Z" fill="#CF9F30"/>
<path id="Vector_15" d="M20 139.438C21.3462 139.438 22.4375 138.346 22.4375 137C22.4375 135.654 21.3462 134.562 20 134.562C18.6538 134.562 17.5625 135.654 17.5625 137C17.5625 138.346 18.6538 139.438 20 139.438Z" fill="#CF9F30"/>
<path id="Vector_16" d="M20 22.4375C21.3462 22.4375 22.4375 21.3462 22.4375 20C22.4375 18.6538 21.3462 17.5625 20 17.5625C18.6538 17.5625 17.5625 18.6538 17.5625 20C17.5625 21.3462 18.6538 22.4375 20 22.4375Z" fill="#CF9F30"/>
<path id="Vector_17" d="M137 139.438C138.346 139.438 139.438 138.346 139.438 137C139.438 135.654 138.346 134.562 137 134.562C135.654 134.562 134.562 135.654 134.562 137C134.562 138.346 135.654 139.438 137 139.438Z" fill="#CF9F30"/>
</g>
</g>
</svg>
