<svg width="24" height="24" viewBox="0 0 24 24" fill="none" xmlns="http://www.w3.org/2000/svg">
<path id="Vector" fill-rule="evenodd" clip-rule="evenodd" d="M16.2262 9.2722C16.2262 13.1129 13.1128 16.2263 9.27214 16.2263C5.43149 16.2263 2.31803 13.1129 2.31803 9.2722C2.31803 5.43153 5.43149 2.31805 9.27214 2.31805C13.1128 2.31805 16.2262 5.43153 16.2262 9.2722ZM14.958 16.5971C13.3877 17.8176 11.4148 18.5444 9.27214 18.5444C4.15128 18.5444 0 14.3931 0 9.2722C0 4.1513 4.15128 0 9.27214 0C14.393 0 18.5443 4.1513 18.5443 9.2722C18.5443 11.4148 17.8175 13.3878 16.597 14.9579L24 22.361L22.3608 24L14.958 16.5971Z" fill="#CF9F30"/>
</svg>
